<svg width="200" height="200" fill="#ffffff" xmlns="http://www.w3.org/2000/svg" xmlns:xlink="http://www.w3.org/1999/xlink" xmlns:a="http://ns.adobe.com/AdobeSVGViewerExtensions/3.0/" version="1.1" x="0px" y="0px" viewBox="-9.806 -4.556 100 100" overflow="visible" enable-background="new -9.806 -4.556 100 100" xml:space="preserve"><path d="M43.097,0C19.295,0,0,19.295,0,43.097c0,23.802,19.295,43.097,43.097,43.097c23.802,0,43.097-19.295,43.097-43.097  C86.194,19.295,66.899,0,43.097,0z M82.324,40.444h-6.13v1h-9v-4h-1v4h-4.555c-2.401-2.074-5.947-4.353-8.414-4.353  c-3.355,0-7.003,0.644-9.032,0.855v-3.502h3v-1h-3v-14h3v-1h-3v-8h1V4.38C64.966,5.411,80.859,20.932,82.324,40.444z M44.194,42.444  v6h3v1h-3v2h-1v-2h-4v-1h4v-6h-7v4h-1v-4h-13v-1h13v-3h1v3h7v-3h1v3h7v-4h1v4h9v1h-9v3h-1v-3H44.194z M27.151,25.859v-0.057  c0.008,0.007,0.014,0.014,0.021,0.021L27.151,25.859z M41.194,4.372v6.072h2v8h-4v1h4v14h-4v1h4v3.57  c-1.579-0.002-6.803-1.509-7.519-1.365c-0.716,0.144-4.298,1.014-4.298,1.014l0.287-4.219h5.803c0,0,2.938-1.408,0-3.271  c-2.938-1.864-4.587-4.539-6.091-4.109c-1.503,0.431,0.718-3.019,0.718-3.019s4.156-1.618,4.728-2.549  c0.573-0.931-2.794,1.197-4.083,1.054s-0.358-1.658-0.358-1.658s3.796-5.308,8.668-5.092c4.872,0.215-1.146-0.79-1.576-0.79  c-0.43,0,0.931-2.149,2.436-2.436c1.504-0.287-0.429-1.508-3.152,1.215c-2.723,2.722-2.508,3.224-4.012,3.081  s0.502-3.224,1.433-3.869c0.931-0.645,0.357-1.112-0.144-0.95c-0.501,0.162-2.507,2.957-2.866,4.819  c-0.358,1.862-1.792,3.224-1.792,3.224l-0.523,0.43l-0.408,0.426l-0.358-0.505H29.73c0,0-0.931,3.228-1.935,3.657  s-1.719-1.468-1.719-1.468s0.287-0.769,1.719-2.345c1.432-1.576,2.507-3.25,2.507-3.25l-0.215-0.73l-0.716,0.783l-2.723,2.717  c0,0-2.649,1.503-1.217-1.361c1.433-2.866,1.79-4.872,3.367-5.732c1.577-0.859,3.941-2.508,3.941-2.508l-0.072-0.789l-0.788,0.574  c0,0-2.293,1.862-2.221,1.217c0.072-0.645,0.215-1.791,0.215-1.791L29.156,8.06l-0.071,0.789l-0.144,1.218  c0,0-2.723,3.869-3.152,4.155c-0.43,0.286-0.783-1.433-0.783-1.433s-0.793-0.859-0.793,0.502s0.574,1.647,0.574,1.647  s-1.648,7.88,2.221,10.747c0.012,0.009,0.021,0.019,0.033,0.027c-0.48,0.148-2.427,1.087-3.614,6.708  c-1.149,5.439-1.836,8.271-2.024,9.025h-0.208v-3h-1v3h-11v-1H3.87C5.34,20.868,21.332,5.311,41.194,4.372z M3.774,44.444h5.419v-2  h11v4h1v-4h0.482l0.783,1.867c0,0,1.701,5.374,2.99,5.731c1.29,0.358,0.637,5.946,0.637,5.946l0.425,2.149l-0.021,4.371l0.481,5.805  l-0.244,1.611l-0.231,4.171l-0.636,3.349h2.15c0,0,0.304-1.344,0.304-2.061c0-0.715,0.198-1.414,0.198-1.414l0.682-10.746V56.85  l0.841-0.503l0.851,7.165l0.425,0.43L30.985,74.4l0.087,0.287c0,0-0.994,1.723-0.851,1.936s1.581,0.646,2.226,0  c0.645-0.646,0.378-1.506,0.378-1.506l-0.166-0.573l0.534-11.677v-5.157l0.99-3.728c0,0,0.065-1.002,1.712-1.002  c1.125,0,4.635-0.501,7.297-1.093v11.557h-4v1h4v11h-2v6.955C20.699,81.429,4.325,64.897,3.774,44.444z M45.194,82.39v-6.946h-1v-11  h3v-1h-3V51.647c0.79-0.202,1.447-0.408,1.837-0.603c1.72-0.859,2.201-0.788,2.201-0.788s1.674,0,2.247,1.719  c0.572,1.719,5.245,5.587,5.817,6.089c0.572,0.502,4.52,2.579,1.296,9.242c-3.224,6.663-1.213,4.228-2.79,6.305  c-1.577,2.077-1.433,2.293-1.218,2.579c0.215,0.287,1.648,0.143,2.006,0.143c0.359,0,0.861-1.218,0.861-1.72  c0-0.501,1.075-0.287,1.218-0.859c0.144-0.573,0.1-2.292,0.1-2.292l0.425-1.218v2.939l0.024,0.643c0,0-2.102,3.193-1.169,3.137  c0.93-0.056,2.531,0.001,2.531,0.001s0.907-1.561,0.621-2.708c-0.286-1.147,0.524-0.645,0.524-0.645l0.587-7.092  c0,0,1.152-4.873,2.155-6.09c1.003-1.217-1.429-2.508-1.572-2.794c-0.145-0.287-3.654-4.799,0-10.531  c0.071-0.112,0.135-0.218,0.2-0.326l0.112,0.006l1.489,3.885c0,0,1.343,0.294,1.343-1.497c0-1.791-0.641-3.327-0.783-4.688  c-0.037-0.352-0.53-1.018-1.301-1.81c-0.055-0.086-0.121-0.16-0.188-0.231h3.426v3h1v-3h9v2h6.226  C81.871,64.833,65.598,81.327,45.194,82.39z"/></svg>
