<svg width="200" height="200" fill="#ffffff" xmlns="http://www.w3.org/2000/svg" xmlns:xlink="http://www.w3.org/1999/xlink" version="1.1" x="0px" y="0px" viewBox="0 0 100 100" enable-background="new 0 0 100 100" xml:space="preserve"><path d="M95,34.598c0-15.51-12.573-28.083-28.083-28.083c-6.324,0-12.159,2.092-16.854,5.619c-4.694-3.528-10.53-5.619-16.854-5.619  c-15.51,0-28.083,12.573-28.083,28.083c0,11.539,6.962,21.448,16.912,25.768c-0.296,1.635-0.459,3.315-0.459,5.035  c0,15.51,12.573,28.083,28.083,28.083c15.51,0,28.083-12.573,28.083-28.083c0-1.612-0.143-3.189-0.404-4.727  C87.688,56.535,95,46.424,95,34.598z M50.063,16.711c1.888,1.779,3.489,3.857,4.74,6.152l-5.45-5.45  C49.586,17.176,49.82,16.939,50.063,16.711z M69.048,59.078c-0.619,0.054-1.244,0.089-1.876,0.095l-9.979-9.979  c0.25-0.41,0.493-0.825,0.723-1.248L69.048,59.078z M59.475,44.531c0.18-0.475,0.353-0.954,0.507-1.441  c0.015,0.007,0.029,0.015,0.044,0.022l11.915,11.915c0.481,1.031,0.896,2.1,1.232,3.203L59.475,44.531z M28.078,53.644  c0.231-0.422,0.472-0.838,0.726-1.245l6.669,6.669c-0.618,0.057-1.242,0.088-1.872,0.098L28.078,53.644z M28.099,58.638  c-0.653-0.139-1.3-0.296-1.933-0.485c0.112-0.365,0.238-0.724,0.366-1.081L28.099,58.638z M30.904,49.525  c0.301-0.355,0.612-0.701,0.932-1.039l9.353,9.353c-0.496,0.171-1,0.322-1.51,0.461L30.904,49.525z M34.432,46.108  c0.368-0.291,0.746-0.57,1.131-0.84l10.361,10.361c-0.412,0.25-0.837,0.48-1.265,0.706L34.432,46.108z M38.677,43.409  c0.449-0.225,0.904-0.44,1.369-0.637c0.334,1.099,0.737,2.166,1.197,3.203L38.677,43.409z M42.396,36.263l1.629,1.629  c-0.478,0.098-0.955,0.2-1.425,0.322C42.506,37.572,42.44,36.921,42.396,36.263z M42.543,31.438  c0.073-0.571,0.164-1.137,0.276-1.695l7.603,7.603c-0.254-0.007-0.505-0.027-0.761-0.027c-0.403,0-0.8,0.021-1.199,0.038  L42.543,31.438z M43.928,25.878c0.179-0.471,0.375-0.933,0.582-1.389l13.084,13.084c-0.035,0.287-0.057,0.577-0.101,0.861  c-0.444-0.129-0.898-0.234-1.351-0.342L43.928,25.878z M55.146,52.121l6.474,6.474c-0.939-0.207-1.855-0.469-2.75-0.779  l-4.629-4.629C54.549,52.837,54.855,52.485,55.146,52.121z M46.266,21.272c0.257-0.397,0.527-0.784,0.806-1.165l10.37,10.37  c0.125,0.736,0.213,1.484,0.27,2.241L46.266,21.272z M8.625,34.598c0-13.577,11.006-24.583,24.583-24.583  c5.257,0,10.125,1.656,14.122,4.466c-5.239,5.102-8.497,12.227-8.497,20.117c0,1.612,0.143,3.189,0.404,4.727  c-7.757,3.104-13.807,9.561-16.349,17.585C14.468,53.009,8.625,44.488,8.625,34.598z M49.661,89.985  c-13.577,0-24.583-11.006-24.583-24.583c0-1.305,0.104-2.585,0.299-3.835c2.487,0.721,5.112,1.115,7.831,1.115  c6.324,0,12.16-2.092,16.854-5.619c4.694,3.528,10.53,5.619,16.854,5.619c2.439,0,4.805-0.312,7.061-0.896  c0.174,1.18,0.267,2.387,0.267,3.616C74.245,78.979,63.238,89.985,49.661,89.985z M76.533,57.229  c-2.263-7.449-7.538-13.582-14.407-16.991l-0.08-0.08l-0.029,0.029c-0.39-0.192-0.783-0.379-1.183-0.553  c0.296-1.635,0.459-3.315,0.459-5.035c0-7.89-3.258-15.015-8.497-20.117c3.997-2.811,8.864-4.466,14.122-4.466  c13.577,0,24.583,11.006,24.583,24.583C91.5,44.763,85.331,53.485,76.533,57.229z"/></svg>
