<svg width="200" height="200" fill="#ffffff" xmlns="http://www.w3.org/2000/svg" xmlns:xlink="http://www.w3.org/1999/xlink" version="1.1" x="0px" y="0px" viewBox="0 0 25 25" enable-background="new 0 0 25 25" xml:space="preserve"><g><g><path d="M20.003,5.498c-2.025-0.013-3.94-1.227-3.94-2.498c0-0.276-0.224-0.5-0.5-0.5H9.5C9.224,2.5,9,2.724,9,3    c0,1.284-1.926,2.498-3.995,2.498C4.734,5.469,4.5,5.72,4.5,5.998V15.5c0,3.542,7.006,6.621,7.805,6.96    c0.062,0.026,0.129,0.04,0.195,0.04s0.133-0.014,0.195-0.04c0.799-0.339,7.805-3.418,7.805-6.96V5.998    C20.5,5.723,20.278,5.5,20.003,5.498z M19.5,15.5c0,2.368-4.876,5.019-7,5.955c-2.124-0.937-7-3.587-7-5.955V6.481    C7.52,6.322,9.595,5.162,9.948,3.5h5.168c0.351,1.638,2.391,2.795,4.384,2.974V15.5z"/><path d="M12.5,7C10.019,7,8,9.019,8,11.5c0,2.311,1.756,4.197,4,4.449V19.5c0,0.276,0.224,0.5,0.5,0.5s0.5-0.224,0.5-0.5v-3.551    c2.244-0.252,4-2.139,4-4.449C17,9.019,14.981,7,12.5,7z M13,14.949v-2.242l1.854-1.854c0.195-0.195,0.195-0.512,0-0.707    s-0.512-0.195-0.707,0L13,11.293V9.5C13,9.224,12.776,9,12.5,9S12,9.224,12,9.5v2.191l-1.276-0.639    c-0.248-0.125-0.547-0.022-0.671,0.224c-0.124,0.247-0.023,0.547,0.224,0.671L12,12.809v2.141c-1.691-0.245-3-1.69-3-3.449    C9,9.57,10.57,8,12.5,8S16,9.57,16,11.5C16,13.259,14.691,14.704,13,14.949z"/></g></g></svg>
