<svg width="200" height="200" fill="#ffffff" xmlns="http://www.w3.org/2000/svg" xmlns:xlink="http://www.w3.org/1999/xlink" version="1.1" x="0px" y="0px" viewBox="0 0 199.209 228.642" style="enable-background:new 0 0 199.209 228.642;" xml:space="preserve"><g><path d="M7.195,227.388c1.717,0.805,3.523,1.186,5.301,1.186c4.697,0,9.198-2.66,11.324-7.194   c13.009-27.738,16.411-54.035,16.411-73.945c-0.003-5.078-0.224-9.741-0.564-13.929c0.089,0.041,0.171,0.089,0.262,0.127   c0,0,0.006,0.003,0.024,0.011c0.441,0.205,5.425,2.665,10.235,9.027c4.904,6.558,10.091,17.211,10.15,35.927   c0.002,9.349-1.362,20.708-4.931,34.385c-1.743,6.68,2.26,13.509,8.941,15.252c1.058,0.275,2.119,0.407,3.162,0.407   c5.553,0,10.621-3.726,12.088-9.35c4.025-15.437,5.738-28.913,5.74-40.695c0.076-25.125-8.064-42.554-16.862-53.095   c-3.755-4.535-7.521-7.819-10.709-10.144c-6.427-21.242-2.143-32.695,6.309-46.669l28.304,3.995c0.377,0.053,0.755,0.08,1.129,0.08   c2.505,0,4.878-1.172,6.402-3.219l20.5-27.5c1.541-2.068,1.926-4.633,1.282-6.938l4.534-0.862l-0.65-3.421l15.672-2.979   l-1.445-7.604L199.209,8.95l-1.334-7.018L75.265,25.238l-0.113,0.253c1.676-10.437-4.215-20.93-14.514-24.683   c-0.673-0.245-1.35-0.451-2.027-0.629c-4.374,1.305-6.629,3.891-8.167,6.929c-1.302,2.647-1.814,5.651-1.978,7.974   c3.668,1.009,6.367,4.36,6.367,8.349c0,4.786-3.881,8.666-8.668,8.666s-8.666-3.88-8.666-8.666c0-3.447,2.017-6.415,4.931-7.812   c0.118-2.919,0.647-7.061,2.62-11.139c0.73-1.545,1.719-3.074,2.97-4.481C40.796,1.626,34.522,6.774,31.8,14.249   C27.55,25.92,33.566,38.832,45.24,43.083c0.407,0.148,0.816,0.281,1.227,0.405l-8.89,3.502c-4.511-1.003-9.02-2.007-13.531-3.01   c-1.448-0.775-3.102-1.217-4.858-1.217c-3.779,0-7.074,2.039-8.87,5.071c-0.911,1.538-1.442,3.325-1.442,5.242   c0,3.06,1.34,5.8,3.456,7.689c2.183,2.36,4.876,4.541,7.89,6.883c0.006,0.005,0.012,0.01,0.018,0.015l-0.002-0.002   c6.656,5.123,14.393,10.245,14.473,10.3c1.344,0.893,2.883,1.332,4.418,1.332c1.861,0,3.715-0.648,5.205-1.924l31.473-26.945   c3.355-2.873,3.748-7.923,0.875-11.28c-2.875-3.356-7.924-3.748-11.279-0.874l-26.82,22.96c-2.563-1.787-5.735-4.055-8.552-6.223   c-0.009-0.007-0.018-0.016-0.026-0.023c-0.209-0.16-0.41-0.317-0.613-0.476c0.066-0.47,0.111-0.945,0.111-1.433   c0-0.074-0.01-0.145-0.012-0.218c1.074,0.331,1.728,0.538,1.728,0.538s0.004,0.007,0.005,0.008   c0.024,0.019,5.117,3.807,7.235,5.299L64.099,36.75c1.811-1.549,4.119-2.402,6.498-2.402c2.928,0,5.699,1.273,7.6,3.496   c0.381,0.444,0.705,0.917,0.994,1.404l12.143-2.308l0.723,3.802l10.921-2.076L89.919,56.179l-15.246-2.151L45.632,78.89   c-1.811,1.55-4.121,2.403-6.508,2.403c-1.971,0-3.881-0.574-5.523-1.663l-0.1-0.069c-1.918-1.279-8.631-5.809-14.486-10.316   c-0.002-0.002-0.005-0.005-0.008-0.007c-3.045-2.364-5.968-4.7-8.348-7.322l-0.014-0.015l-0.055-0.062   c-0.76-0.878-1.623-1.874-2.502-3.614c-0.257-0.552-0.592-1.291-0.844-2.267C3.235,78.72,6.34,93.927,11.57,115.776   c0.08,0.522,0.183,1.044,0.333,1.565l-0.001,0.001c0.205,0.724,3.336,12.489,3.328,30.093c-0.002,17.103-2.92,39.617-14.043,63.328   C-1.747,217.013,0.945,224.457,7.195,227.388z M40.131,133.719l0.001-0.001c0,0,0,0.001,0.001,0.001H40.131z"/><circle cx="46.25" cy="24.014" r="6"/></g></svg>
