<svg width="200" height="200" fill="#ffffff" xmlns="http://www.w3.org/2000/svg" xmlns:xlink="http://www.w3.org/1999/xlink" version="1.1" x="0px" y="0px" viewBox="0 0 90 90" enable-background="new 0 0 90 90" xml:space="preserve"><path d="M53.9,43.1L53.9,43.1L53.9,43.1l-1.5-4.5c-0.1-0.2-0.1-0.5-0.2-0.6C52.1,37,52,36.7,52,35.7v-5.2l-0.4-1.3  c-0.1-5.1-0.8-11.4-2-16.9c-0.4-2-0.9-3.9-1.6-5.8c-0.3-1-0.7-2-1.3-2.9c-0.4-0.5-1-1.1-1.7-1.1c-0.8,0-1.4,0.5-1.8,1.1  c-0.5,0.7-0.9,1.6-1.2,2.4c-0.6,1.6-1.1,3.4-1.5,5.1c-0.1,0.6-0.3,1.2-0.4,1.8c-1.1,5.5-1.8,11.4-1.9,16.4L38,30.5v5.2  c0,1-0.1,1.3-0.3,2.2c0,0.2-0.1,0.4-0.2,0.6c0,0-1.4,4.5-1.5,4.5c-0.5,1.8-0.6,3-0.6,4.5v34.1v0.8v0.5l0.4,0.4l0.5,0.5V84l-0.5,0.5  l-0.4,0.4v0.5v0.8v1.3h1.3h11.8H51h2.2h1.3v-1.3v-0.8v-0.5l-0.4-0.4L53.6,84v-0.3l0.5-0.5l0.4-0.4v-0.5v-0.8V47.5  C54.5,45.8,54.3,44.5,53.9,43.1z M52.7,81.2H51V47.5c0-1.5-0.1-2.7-0.4-4.2l-1.1-4.5c-0.2-1.4-0.4-1.8-0.4-3.2v-4.2h-1.6v4.2  c0,1.4,0.1,1.8,0.2,3.2l0.7,4.5c0.2,1.4,0.2,2.6,0.2,4.2v33.6H37.3V47.5c0-1.4,0-2.4,0.5-4l1.5-4.6c0.1-0.3,0.1-0.5,0.2-0.7  c0.2-0.9,0.3-1.4,0.3-2.6V31h10.5v4.7c0,1.2,0.1,1.7,0.3,2.6c0,0.2,0.1,0.4,0.2,0.7l1.5,4.5c0.4,1.3,0.5,2.5,0.5,4V81.2z M52.7,85.6  L52.7,85.6l-1.8,0.1c0-0.1-0.1-0.2-0.1-0.3h-2.3c0,0.1,0,0.2,0.1,0.3H37.3v-0.1l0.4-0.4h14.6L52.7,85.6z M38.1,84.2v-0.6h10.1v0.6  H38.1z M51.9,84.2h-1.5v-0.6h1.5V84.2z M37.7,82.6l-0.4-0.4v-0.1h11.3c0,0.2-0.1,0.3-0.1,0.5H37.7z M52.7,82.2l-0.4,0.4h-1.6  c0.1-0.2,0.1-0.4,0.2-0.5L52.7,82.2L52.7,82.2z M40.1,29.9c0-2.2,0.1-4.4,0.3-6.5c0.2-2.1,0.5-4.3,0.8-6.4c0.3-1.9,0.7-3.8,1.1-5.7  c0.3-1.5,0.7-2.9,1.2-4.3c0.3-0.8,0.6-1.7,1.1-2.4c0.1-0.2,0.4-0.5,0.5-0.1C45.6,6.2,45.8,8,46,9.8c0.1,0.9,0.2,1.9,0.3,2.8  c0.2,2,0.4,4,0.5,6c0.2,2.2,0.3,4.3,0.3,6.5c0.1,1.6,0.1,3.2,0.1,4.8c0,0,0,0.1,0,0.1h-7.2C40.1,30,40.1,29.9,40.1,29.9z M49.9,30  h-1.1c0,0,0-0.1,0-0.1c0-9.6-1.9-21.8-3.4-25.2c1.6,2.5,4.4,14.7,4.4,25.2C49.9,29.9,49.9,30,49.9,30z"/></svg>
