<svg height="200" width="200" fill="#ffffff" xmlns="http://www.w3.org/2000/svg" xmlns:xlink="http://www.w3.org/1999/xlink" version="1.1" x="0px" y="0px" viewBox="0 0 100 100" style="enable-background:new 0 0 100 100;" xml:space="preserve"><g><path d="M46.476,70.809c14.265,1.874,27.102-7.537,28.892-20.992c1.187-8.92-5.935-14.395-12.174-20.552   c-2.181-3.264-3.304-7.859-1.21-15.656c-2.056-0.132-4.536,0.972-7.063,3.022c-1.006-4.447-0.246-9.768,3.627-16.566   c-10.608-1.394-35.965,19.946-34.839,42.96C24.373,56.583,32.211,68.934,46.476,70.809z M52.375,28.355   C45.442,44.594,65.037,44.12,64.832,54.787c-0.117,6.055-4.311,11.156-10.089,12.92c0.784-1.044,1.277-2.338,1.341-3.758   c0.342-7.557-8.962-7.762-7.56-13.457c-2.795,1.983-5.571,6.999-5.201,12.879c0.086,1.361,0.465,2.647,1.09,3.729   c-4.736-2.217-7.754-7.09-8.653-12.592C33.688,41.834,46.406,28.299,52.375,28.355z M83.051,90.213l-3.396,8.914   c-0.267,0.699-1.05,1.051-1.748,0.784L50,89.282L22.093,99.911c-0.7,0.267-1.482-0.085-1.749-0.784l-3.396-8.914   c-0.266-0.699,0.085-1.482,0.784-1.749l15.059-5.735l-15.059-5.734c-0.699-0.267-1.05-1.049-0.784-1.749l3.396-8.914   c0.267-0.7,1.049-1.051,1.749-0.784L50,76.175l27.907-10.628c0.698-0.267,1.481,0.084,1.748,0.784l3.396,8.914   c0.266,0.7-0.085,1.482-0.784,1.749l-15.059,5.734l15.059,5.735C82.966,88.73,83.316,89.514,83.051,90.213z"/></g></svg>