<svg width="200" height="200" fill="#ffffff" xmlns="http://www.w3.org/2000/svg" xmlns:xlink="http://www.w3.org/1999/xlink" version="1.1" x="0px" y="0px" viewBox="0 0 48 48" enable-background="new 0 0 48 48" xml:space="preserve"><g><g><g><path fill="#ffffff" d="M31.9,18H2.5c-1.1,0-2-0.9-2-2s0.9-2,2-2h29.4c1.1,0,2,0.9,2,2S33,18,31.9,18z"/></g><g><path fill="#ffffff" d="M31.9,18c-1.1,0-2-0.9-2-2s0.9-2,2-2c3,0,5.4-2.2,5.4-4.8c0-2.7-2.4-4.8-5.4-4.8c-3,0-5.4,2.2-5.4,4.8     c0,1.1-0.9,2-2,2s-2-0.9-2-2c0-4.8,4.2-8.7,9.3-8.7s9.3,3.9,9.3,8.7S37,18,31.9,18z"/></g></g><g><g><path fill="#ffffff" d="M31.9,33.9H2.5c-1.1,0-2-0.9-2-2s0.9-2,2-2h29.4c1.1,0,2,0.9,2,2S33,33.9,31.9,33.9z"/></g><g><path fill="#ffffff" d="M31.9,47.5c-1.1,0-2-0.9-2-2s0.9-2,2-2c3,0,5.4-2.2,5.4-4.8c0-2.7-2.4-4.8-5.4-4.8c-1.1,0-2-0.9-2-2     s0.9-2,2-2c5.1,0,9.3,3.9,9.3,8.7S37,47.5,31.9,47.5z"/></g></g><g><path fill="#ffffff" d="M38.5,26.3H2.5c-1.1,0-2-0.9-2-2c0-1.1,0.9-2,2-2h36.1c1.1,0,2,0.9,2,2C40.5,25.4,39.6,26.3,38.5,26.3z"/></g><g><path fill="#ffffff" d="M38.5,26.3c-1.1,0-2-0.9-2-2c0-1.1,0.9-2,2-2c2.8,0,5-1.8,5-4c0-1.1,0.9-2,2-2s2,0.9,2,2    C47.5,22.8,43.5,26.3,38.5,26.3z"/></g></g></svg>
