<svg width="200" height="200" fill="#ffffff" xmlns="http://www.w3.org/2000/svg" xmlns:xlink="http://www.w3.org/1999/xlink" version="1.1" x="0px" y="0px" viewBox="0 0 100 100" style="enable-background:new 0 0 100 100;" xml:space="preserve"><style type="text/css">
	.st0{fill:#ffffff;}
</style><path class="st0" d="M96,77.6h-8.8c-3.1-9-16.4-46.3-20.8-46.3c-4.5,0-17.7,37.2-20.8,46.3h-2.2c1.1-3.1,4.6-13.2,8.6-23.3  c1.7-4.2,3.1-7.8,4.4-10.7c-5-12.3-10.2-22.9-12.7-22.9c-5.5,0-22,46.7-25.5,57H6c-1,0-1.8,0.8-1.8,1.8S5,81.2,6,81.2h90  c1,0,1.8-0.8,1.8-1.8S97,77.6,96,77.6z M66.5,33.8c2.8-0.1,11.9,24.6,11.9,24.6L71.4,53l-4.1,3.9l-6.4-6.7l-4.6,3.6  C56.3,53.8,63.7,33.9,66.5,33.8z M43.6,23c2.8,0,11.4,21.6,11.4,21.6l-5.4-3.9l-6.9,7.3l-4.4-4.2l-8,5.7C30.3,49.4,40.6,23,43.6,23z  "/></svg>
