<svg width="200" height="200" fill="#ffffff" xmlns="http://www.w3.org/2000/svg" xmlns:xlink="http://www.w3.org/1999/xlink" version="1.1" x="0px" y="0px" viewBox="0 0 66 66" enable-background="new 0 0 66 66" xml:space="preserve"><g><g><path fill="#ffffff" d="M15.6,34.9c0,2.2,1.8,4,4.1,4c2.2,0,4.1-1.8,4.1-4s-1.8-4-4.1-4C17.4,30.8,15.6,32.6,15.6,34.9z     M19.6,32.8c1.1,0,2.1,0.9,2.1,2c0,1.1-0.9,2-2.1,2s-2.1-0.9-2.1-2C17.6,33.7,18.5,32.8,19.6,32.8z"/></g><g><path fill="#ffffff" d="M65.8,38.4c-0.4-1.3-1.3-2.4-2.5-2.9c0-1.6-0.8-3.1-2.2-3.9c-0.1-0.6-0.4-1.2-0.7-1.7l-7-26.1    c-0.1-0.4-0.5-0.7-0.9-0.7c-0.4,0-0.8,0.2-1,0.6l-7.3,19L35.8,7.2c-0.2-0.3-0.5-0.5-0.8-0.5c-0.4,0-0.7,0.1-0.9,0.4L21.4,25.9    l-1.1-1c-0.4-0.3-0.9-0.3-1.3,0l-8.5,7.3v-7.2c0-0.6-0.4-1-1-1H4.3c-0.6,0-1,0.4-1,1v13.4l-3,2.6c-0.3,0.3-0.4,0.7-0.3,1.1    c0.1,0.4,0.5,0.7,0.9,0.7h1.7V65c0,0.6,0.4,1,1,1c3.8,0,28,0,31.8,0c0.6,0,1-0.4,1-1V42.7h1.7c0.4,0,0.8-0.3,0.9-0.7    c0.1-0.4,0-0.8-0.3-1.1l-16-13.8l8.4-12.4c2,1.6,4.4,1.7,6.4,0.1L45.9,30c-0.3,0.2-0.7,0.4-1,0.7c-0.9,0.9-1.4,2-1.4,3.2    c-1.1,0.6-1.9,1.6-2.2,2.8c-0.3,1.1-0.2,2.3,0.3,3.3c-1.1,1.1-1.7,2.6-1.4,4.2c0.3,1.7,1.6,3.1,3.2,3.6c0.5,1.1,1.5,2,2.8,2.4    c0.8,0.3,1.7,0.3,2.5,0.1V64h-2.2c-0.6,0-1,0.4-1,1c0,0.6,0.4,1,1,1c1.4,0,10.8,0,12.2,0c0.6,0,1-0.4,1-1c0-0.6-0.4-1-1-1h-2.2    V51.4c0.4,0.1,0.8,0.2,1.1,0.2c0.6,0,1.2-0.1,1.8-0.4c1.3-0.6,2.3-1.7,2.7-3c1.1-0.4,2.1-1.2,2.6-2.3c0.5-1.1,0.6-2.3,0.2-3.5    C65.9,41.2,66.2,39.8,65.8,38.4z M5.3,26.1h3.2v7.9l-3.2,2.8V26.1z M14.6,64V50.7h10.1V64H14.6z M34.5,64h-7.8V49.7    c0-0.6-0.4-1-1-1H13.6c-0.6,0-1,0.4-1,1V64H4.7V42.7h29.8V64z M35.5,40.7H3.7h0c3.5-3,12.6-10.9,15.9-13.7L35.5,40.7L35.5,40.7z     M52.3,7.2l1.3,4.9C52.7,13,52,13.2,50.4,12L52.3,7.2z M49.7,13.9c1.5,1,3,1.3,4.5,0.3L57.9,28c-0.8-0.2-1.6-0.2-2.4,0    c-1.1-1.2-2.7-1.8-4.3-1.4c-1.5,0.3-2.8,1.3-3.3,2.7l-2.3-4.3L49.7,13.9z M32.4,13.1l2.4-3.5l1.9,3.6    C35.4,14.3,33.9,14.3,32.4,13.1z M63.2,41.4c-0.3,0.3-0.4,0.8-0.2,1.2c0.4,0.7,0.4,1.6,0,2.3c-0.4,0.8-1.1,1.3-1.9,1.4    c-0.4,0.1-0.8,0.4-0.8,0.9c-0.1,0.9-0.7,1.7-1.6,2.1c-0.9,0.4-1.8,0.2-2.6-0.3c-0.7-0.5-1.6,0-1.6,0.8V64h-3.8V48.7    c0-0.8-1-1.3-1.6-0.8c-0.7,0.5-1.5,0.6-2.3,0.4c-0.8-0.3-1.4-0.9-1.7-1.7c-0.1-0.4-0.4-0.6-0.8-0.7c-1.3-0.2-2-1.2-2.1-2.1    c-0.2-0.9,0.1-2,1.2-2.7c0.3-0.1,0.4-0.4,0.5-0.7c0.1-0.3,0-0.6-0.2-0.8c-0.5-0.7-0.7-1.5-0.5-2.4c0.2-0.8,0.8-1.5,1.7-1.7    c0.4-0.2,0.7-0.6,0.7-1.1c-0.1-1.1,0.3-1.9,0.8-2.3c0.3-0.3,0.8-0.6,1.2-0.7c0,0,0,0,0,0c0.2-0.1,0.5-0.1,0.7-0.1    c0.5,0.1,1-0.3,1.1-0.8c0.2-1.3,1.2-2,2.1-2.1c0.9-0.2,2,0.1,2.7,1.2c0.3,0.4,0.8,0.6,1.3,0.4c0.8-0.4,1.7-0.3,2.4,0.1    c0.8,0.4,1.2,1.2,1.3,2.1c0,0.4,0.3,0.7,0.6,0.8c1.1,0.5,1.7,1.7,1.5,2.9c-0.1,0.5,0.2,1,0.7,1.2c0.9,0.2,1.6,0.9,1.9,1.8    C64.2,39.8,63.9,40.8,63.2,41.4z"/></g><g><path fill="#ffffff" d="M59.5,36.1l-2.8,1.2l-1.2-2.8c-0.2-0.5-0.8-0.7-1.3-0.5c-0.5,0.2-0.7,0.8-0.5,1.3l1.5,3.5l-0.6,3.4    L52.7,44l-1.9-1.9l-0.1-3.3l2.1-3.1c0.3-0.5,0.2-1.1-0.3-1.4c-0.5-0.3-1.1-0.2-1.4,0.3l-1.7,2.5l-2.5-1.7    c-0.5-0.3-1.1-0.2-1.4,0.3c-0.3,0.5-0.2,1.1,0.3,1.4l2.9,2l0.1,2.3L46,40.7c-0.5-0.1-1.1,0.2-1.2,0.8c-0.1,0.5,0.2,1.1,0.8,1.2    l3.7,0.8l2.4,2.4v4.7c0,0.6,0.4,1,1,1c0.6,0,1-0.4,1-1v-4.7l2.3-2.4l3.7-0.9c0.5-0.1,0.9-0.7,0.7-1.2c-0.1-0.5-0.7-0.9-1.2-0.7    l-2.5,0.6l0.3-2l3.2-1.4c0.5-0.2,0.7-0.8,0.5-1.3C60.6,36.1,60,35.9,59.5,36.1z"/></g><g><path fill="#ffffff" d="M7.9,15.6c4.3,0,7.8-3.5,7.8-7.8c0-4.3-3.5-7.8-7.8-7.8S0.1,3.5,0.1,7.8C0.1,12.1,3.6,15.6,7.9,15.6z     M7.9,2c3.2,0,5.8,2.6,5.8,5.8c0,3.2-2.6,5.8-5.8,5.8S2.1,11,2.1,7.8C2.1,4.6,4.7,2,7.9,2z"/></g></g></svg>
