<svg width="200" height="200" fill="#ffffff" xmlns="http://www.w3.org/2000/svg" data-name="Layer 1" viewBox="0 0 100 100" x="0px" y="0px"><title>icons_animals_2</title><path d="M92,66.78c-.86-.66-.9-2.58-1-5a31.07,31.07,0,0,0-1.49-10.15c-2.87-8.14-11.3-8.09-16.06-6.78C70.3,39,60.72,38.77,48.11,39.23l-.91,0a19.55,19.55,0,0,1-5.86-.84c4.48-1.07,5.31-5.34,5.84-8.13a15.74,15.74,0,0,1,.45-1.95l.88-2.52-2.32,1.32c-2.33,1.33-3.48,1.3-12.11-8.15-7.62-8.33-18.29-4.94-21.39-3.7C11.73,14,9.62,12.6,6,13.65l-1.44.42.94,1.17c2.24,2.78,1.83,4.34,1.23,6.7A16.52,16.52,0,0,0,6.08,26,69.76,69.76,0,0,1,4.54,37.14a3.06,3.06,0,0,0,.1,2.62c.78,1.3,2.56,1.58,4.68,1.92A4.54,4.54,0,0,0,13,40.84a6.86,6.86,0,0,0,2.19-5.05,3.9,3.9,0,0,1,3-3.32c.4,0,.42.08.44.12a21,21,0,0,1,0,7.93,30,30,0,0,0-.1,9.24c-3,.33-11.47,1.54-15.31,5L3,55.06l-.06.53C1.06,72.21,6.58,77.52,11.53,79.05l.69.21.42-.59A12.62,12.62,0,0,0,14.9,72.8L15,71.67l-1.13.06a2.18,2.18,0,0,1-1.42-.39c-.05-.06-.2-.22-.12-.73l.19-1.21-1.22.06c-.19,0-.5-.23-.79-.63A12,12,0,0,1,9.2,61.35c.65,0,1.58.12,2.6.21,3.31.3,7.72.7,10.93.1,6.47,14,7.36,20.26,6.86,21.92-3.21,1.44-3.64,5.37-3.66,5.54l-.11,1.1h7.36l-.08-1.07c0-.66,1.61-2.19,3.13-3.12l.58-.35L36.68,85c-1.07-6.49-2.4-16.24-2.4-20.65a33.63,33.63,0,0,0,9.05,1.4,16.44,16.44,0,0,0,6.44-1.17,28.55,28.55,0,0,0,2.74,9.28C49,77.18,45.41,88,45,89.35l-.42,1.31H55.31l-.64-6.32,7-8V76a16.89,16.89,0,0,1,2.1-7.4c7.59,2.73,8.81,12.23,9,14.8-2.29,1.36-3.12,5.59-3.22,6.11l-.21,1.18h8.48L78,90c.54-1.53,1.54-3.32,2.19-3.56l1.28-.48-.84-1.07c-2-2.57-2.18-7.77-2.31-11.57,0-1.38-.08-2.58-.2-3.48l-.06-.42-.34-.25c-3.2-2.37-3.45-10.07-3.27-13.08a27.26,27.26,0,0,0,.24-6.23C79,51.81,79,55.67,79,60.45c0,3,0,6.46,1.23,9.67a7.52,7.52,0,0,0,7.27,5.13,9.8,9.8,0,0,0,1.32-.09c4.36-.6,8.31-4,8.62-7.32l.13-1.4-1.36.33C94.1,67.29,92.68,67.29,92,66.78ZM32.61,20.34c7.07,7.74,9.81,10,12.65,9.34l0,.22c-.68,3.51-1.46,7.48-7.84,6.64C32.7,33.5,30.16,28.43,28,24c-.5-1-1-1.94-1.43-2.81a11.05,11.05,0,0,0-7.9-5.5C22.73,15.1,28.22,15.53,32.61,20.34ZM12,59.57a29.39,29.39,0,0,0-3.57-.22l-.61,0-.24.56c-1.06,2.44-.4,7.59,1.28,10a3.51,3.51,0,0,0,1.47,1.29A2.56,2.56,0,0,0,11,72.69a3.29,3.29,0,0,0,1.79.94,11.07,11.07,0,0,1-1.32,3.27C5.89,74.69,3.63,67.51,4.87,56c3.59-3,11.47-4,14.08-4.31a40.57,40.57,0,0,0,2.91,8.05A47.69,47.69,0,0,1,12,59.57Zm47.68,16L52.6,83.68l.5,5H47.32c1.76-5.11,4.87-12.41,7-13.68l1-.57-.67-.89C53.41,71.89,50.27,63,52.39,59.69L50.72,58.6a7.54,7.54,0,0,0-1,3.83c-5,2.65-12.72.66-15.21-.1a33.27,33.27,0,0,0,1.2-5.95l-2-.16a31.94,31.94,0,0,1-1.16,5.67c-1,3.34,1.46,19,2.08,22.79-1.06.71-2.78,2.05-3.33,3.53H28.16a4.33,4.33,0,0,1,2.5-2.92l.34-.12.19-.31c2.42-4-4.42-19.4-7.47-25.84-4.26-9-3.65-13.7-3.07-18.26a22.57,22.57,0,0,0-.09-8.69A2.25,2.25,0,0,0,18,30.48a5.87,5.87,0,0,0-4.82,5.16,5.07,5.07,0,0,1-1.44,3.63,2.61,2.61,0,0,1-2.13.44c-1.38-.22-2.93-.47-3.23-1-.14-.24,0-.73.09-1l0-.11A71.25,71.25,0,0,0,8.08,26a14.67,14.67,0,0,1,.6-3.6c.56-2.19,1.1-4.28-.67-7.14,2.51-.21,3.24,1.41,3.32,1.61l.29.8.83-.15c.09,0,9-1.56,12.33,4.61.46.85.92,1.77,1.4,2.75,3.53,7.1,8.39,16.83,22,16.32,16.17-.58,24,.45,24.49,7.94.63,8.92-1.44,11.56-6.62,14.4C60.51,66.62,59.77,73.81,59.67,75.56Zm16.53-5.09c.07.77.11,1.77.14,2.89.12,3.72.29,8.69,2.14,11.87a10.65,10.65,0,0,0-2.09,3.42H71.77C72.24,87,73.08,85.22,74,85l.75-.19V84c0-.14-.12-13.17-9.76-17.11a8.09,8.09,0,0,1,2-1.56,15.92,15.92,0,0,0,5.55-4.54C72.85,64.16,73.73,68.34,76.19,70.47Zm12.38,2.7a5.62,5.62,0,0,1-6.45-3.77c-1.1-2.86-1.1-6-1.09-9,0-5.2,0-10.55-6.55-12.86q-.08-.44-.2-.85c2.81-.7,10.77-2,13.42,5.56a29.37,29.37,0,0,1,1.37,9.53c.06,3,.12,5.29,1.74,6.54,1,.74,2.3,1,4.24.67A9,9,0,0,1,88.57,73.17Z"/><circle cx="11.88" cy="25.12" r="1.09"/><path d="M51.63,56.57l1.91.6a5.3,5.3,0,0,1,2.44-3l-.78-1.84A7.25,7.25,0,0,0,51.63,56.57Z"/><path d="M68.34,46.43c1.35,2,.93,3.12.92,3.14l1.81.85c.1-.21.93-2.18-1.08-5.12-2.41-3.53-11.06-3.23-12-3.18l.09,2C61.31,44,67,44.46,68.34,46.43Z"/></svg>
