<svg width="200" height="200" fill="#ffffff" xmlns="http://www.w3.org/2000/svg" xmlns:xlink="http://www.w3.org/1999/xlink" version="1.1" x="0px" y="0px" viewBox="0 0 100 100" enable-background="new 0 0 100 100" xml:space="preserve"><path d="M86.785,44.598c-4.284,1.747-6.229,4.309-7.111,6.386v-4.218c0-5.215-3.16-7.352-5.605-8.225  c22.246-1.012,19.584-10.583,19.584-10.583S99.238,39.521,86.785,44.598z M80.449,64.641c-1.631-1.891-1.493-4.301-1.493-4.301  s0-2.385,0-6.266c0.004-0.127,0.015-0.279,0.03-0.455v-6.853c0-7.8-7.418-8.128-7.733-8.138c-0.019,0-0.035-0.004-0.053-0.007  c-0.089,0.001-0.173,0.002-0.263,0.003c-1.648,0-8.379,0-21.171,0c-14.9,0-22.673-12.22-22.673-12.22l-0.153-0.191  c0,0,1.062-5.061-5.218-7.139c-6.28-2.078-9.05,0.941-9.42,1.855c-0.369,0.915-0.6,1.562-2.308,1.562  c-1.709,0-4.895-0.646-4.895,1.57c0,5.9,5.231,6.728,8.076,6.728l2.333,6.063c2.256,19.677,10.717,25.914,10.717,28.335v12.274  c0,0.49-0.397,0.888-0.887,0.888h-0.804c-0.908,0-1.645,0.735-1.645,1.645c0,0.906,0.736,1.643,1.645,1.643h2.208  c0.606,0,0.958-0.15,1.197-0.33c-0.224-0.442-0.224-0.916-0.224-1.162v-0.104c0-1.082,0.983-2.031,2.104-2.031h0.077  c0.299,0,0.543-0.244,0.543-0.541V65.516c0-3.342-1.847-6.047-1.866-6.078c-0.107-0.153-0.069-0.369,0.086-0.477  c0.155-0.107,0.371-0.068,0.478,0.086c0.083,0.117,1.988,2.904,1.988,6.469v11.953c0,0.678-0.55,1.23-1.23,1.23h-0.077  c-0.742,0-1.417,0.639-1.417,1.342v0.104c0,0.242,0,0.556,0.139,0.83c0.169,0.273,0.467,0.476,0.805,0.58  c0.202,0.051,0.446,0.082,0.746,0.082c0.018,0,0.037,0.002,0.055,0.004h4.208c0.907,0,1.643-0.735,1.643-1.643l0.088-15.033  c0,0,9.235,0.83,16.604-4.738c0.612-0.535,1.613-1.518,2.371-2.812c0.096-0.164,0.305-0.22,0.469-0.123s0.221,0.308,0.125,0.472  c-0.719,1.227-1.62,2.176-2.272,2.77c0.707,1.252,2.759,4.189,7.339,6.287c4.038,1.877,4.485,6.348,4.485,6.348v4.297  c0,0.49-0.397,0.887-0.888,0.887l-0.575,0.004c-0.907,0-1.644,0.736-1.644,1.646c0,0.906,0.735,1.644,1.644,1.644h3.725  c0.908,0,1.644-0.736,1.644-1.644l-0.026-13.299c-2.194-0.979-3.791-2.89-4.903-5.818c-0.066-0.18,0.021-0.379,0.198-0.444  c0.179-0.068,0.377,0.021,0.444,0.199c1.447,3.809,3.757,5.772,7.223,6.104c0.229,0.01,0.454,0.018,0.689,0.018  c0.938,0,1.186,0,1.186,0s4.18-0.172,4.18,6.408v4.297c0,0.49-0.396,0.888-0.887,0.888l-0.572,0.004  c-0.91,0-1.645,0.735-1.645,1.645c0,0.906,0.734,1.643,1.645,1.643h4.389c0.906,0,1.643-0.735,1.643-1.643v-8.916  C82.673,68.609,82.501,67.021,80.449,64.641z M15.209,22.587c0,0.37-0.299,0.67-0.669,0.67s-0.67-0.3-0.67-0.67  s0.3-0.669,0.67-0.669S15.209,22.218,15.209,22.587z M19.526,31.862c-0.594,0-1.162-0.174-1.668-0.596  c-1.675-1.544-1.787-3.876-0.341-6.755c1.057-2.103,2.555-3.744,2.619-3.812c0.128-0.141,0.346-0.149,0.486-0.021  c0.14,0.129,0.149,0.346,0.021,0.487c-0.059,0.063-5.794,6.391-2.332,9.586c2.274,1.889,6.662-3.015,6.876-3.26  c0.004-0.006,0.01-0.013,0.015-0.019c0.125-0.14,0.344-0.157,0.486-0.033c0.143,0.125,0.148,0.349,0.026,0.493  C25.673,27.978,22.325,31.861,19.526,31.862z M7.851,24.411c-0.018,0.508-0.431,0.914-0.942,0.914c-0.523,0-0.946-0.423-0.946-0.946  c0-0.39,0.236-0.725,0.573-0.869c0,0.01-0.003,0.021-0.003,0.032c0,0.522,0.424,0.946,0.946,0.946  C7.611,24.488,7.737,24.46,7.851,24.411z"/></svg>
